<svg xmlns="http://www.w3.org/2000/svg" width="43" height="43" viewBox="0 0 43 43" fill="none">
  <circle cx="21.5" cy="21.5" r="21" fill="#21422F" stroke="black"/>
  <path d="M11.2929 30.2929C10.9024 30.6834 10.9024 31.3166 11.2929 31.7071C11.6834 32.0976 12.3166 32.0976 12.7071 31.7071L11.2929 30.2929ZM30 14C30 13.4477 29.5523 13 29 13L20 13C19.4477 13 19 13.4477 19 14C19 14.5523 19.4477 15 20 15L28 15L28 23C28 23.5523 28.4477 24 29 24C29.5523 24 30 23.5523 30 23L30 14ZM12.7071 31.7071L29.7071 14.7071L28.2929 13.2929L11.2929 30.2929L12.7071 31.7071Z" fill="white"/>
</svg>