<svg xmlns="http://www.w3.org/2000/svg" width="167" height="50" viewBox="0 0 167 50" fill="none">
  <path d="M135.859 30.1131H128.435V28.4059C128.435 27.4047 129.247 26.5932 130.248 26.5932H145.63C146.632 26.5932 147.443 27.4047 147.443 28.4059V30.1131H140.019V48.9933H135.859V30.1131ZM71.0921 44.1506H83.4594C84.4606 44.1506 85.272 43.3391 85.272 42.3379V40.6307V30.1131V28.4059C85.272 27.4047 84.4606 26.5932 83.4594 26.5932H81.1124H71.0921H68.745C67.7438 26.5932 66.9324 27.4047 66.9324 28.4059V30.1131V40.6307V44.1506V48.9933H71.0922V44.1506H71.0921ZM81.1124 40.6307H71.0921V30.1131H81.1124V40.6307ZM111.852 44.1906H121.872V48.9933H126.032V44.1906V40.6708V30.1131V28.4059C126.032 27.4047 125.221 26.5932 124.219 26.5932H121.872H111.852H109.505C108.504 26.5932 107.692 27.4047 107.692 28.4059V30.1131V40.6708V44.1906V48.9933H111.852V44.1906H111.852ZM121.872 40.6708H111.852V30.1131H121.872V40.6708ZM166.511 45.5052V47.1806C166.511 48.1818 165.699 48.9933 164.698 48.9933H149.711V26.5931H164.25C165.251 26.5931 166.063 27.4046 166.063 28.4058V30.0812H153.87V35.9051H164.687V39.3294H153.87V45.5052H166.511H166.511ZM89.139 26.5931H91.486C92.4872 26.5931 93.2986 27.4046 93.2986 28.4058V45.4734H105.011V47.1805C105.011 48.1817 104.2 48.9932 103.198 48.9932H89.1388V26.593L89.139 26.5931Z" fill="#21422F"/>
  <path d="M100.377 23.5301C98.0942 23.5301 96.0355 23.0339 94.2008 22.0421C92.3663 21.05 90.9262 19.6739 89.8808 17.9141C88.8354 16.1539 88.3127 14.186 88.3127 12.0101C88.3127 9.83382 88.8354 7.86586 89.8808 6.10568C90.9262 4.34592 92.3663 2.96982 94.2008 1.9777C96.0354 0.985996 98.0941 0.489681 100.377 0.489681C102.659 0.489681 104.718 0.985891 106.553 1.9777C108.388 2.96982 109.828 4.3407 110.873 6.08982C111.918 7.83936 112.441 9.81264 112.441 12.0101C112.441 12.2406 112.435 12.4686 112.423 12.6942V23.097H108.249V20.9295V12.0102C108.249 10.5166 107.908 9.16726 107.225 7.96192C106.542 6.75659 105.604 5.81777 104.409 5.14579C103.214 4.4738 101.87 4.13781 100.377 4.13781C98.8837 4.13781 97.5397 4.4738 96.345 5.14579C95.1503 5.81777 94.2115 6.75659 93.5288 7.96192C92.8462 9.16726 92.505 10.5166 92.505 12.0102C92.505 13.5035 92.8463 14.8528 93.5288 16.0581C94.2115 17.2634 95.1503 18.2022 96.345 18.8742C97.5397 19.5462 98.8836 19.8822 100.377 19.8822C101.87 19.8822 103.214 19.5462 104.409 18.8742C105.072 18.5012 105.657 18.0458 106.162 17.5083V22.2445C104.427 23.1013 102.499 23.5302 100.377 23.5302V23.5301ZM78.1484 23.4171C75.8871 23.4171 73.8431 22.9201 72.0203 21.9291C70.1971 20.9382 68.7662 19.5651 67.7325 17.817C66.6987 16.0682 66.1802 14.0942 66.1802 11.8971C66.1802 9.69967 66.7036 7.72524 67.7483 5.97685C68.7926 4.22846 70.2292 2.8557 72.0525 1.86473C73.8753 0.873754 75.9189 0.376709 78.1802 0.376709C80.0152 0.376709 81.691 0.697568 83.2044 1.33669C84.7185 1.97582 85.9989 2.90484 87.0443 4.12071L84.3563 6.64883C82.7349 4.89971 80.7404 4.02474 78.3722 4.02474C76.8362 4.02474 75.4593 4.36146 74.2442 5.03271C73.0291 5.70355 72.0789 6.6383 71.3963 7.833C70.7137 9.0277 70.3725 10.3823 70.3725 11.8971C70.3725 13.4115 70.7138 14.7662 71.3963 15.9609C72.079 17.1556 73.0291 18.0902 74.2442 18.7611C75.4593 19.4324 76.8362 19.7691 78.3722 19.7691C80.7404 19.7691 82.7349 18.8836 84.3563 17.1129L87.0443 19.6731C85.9989 20.889 84.7131 21.818 83.1885 22.4572C81.6642 23.0963 79.9831 23.4171 78.1485 23.4171H78.1484ZM131.23 16.9133L135.559 23.097H131.078L127.675 18.2184C127.105 18.3087 126.514 18.3537 125.903 18.3537L125.693 18.3518H120.6V23.097H116.426V9.54967L116.424 9.39091C116.424 8.54243 116.527 7.73431 116.731 6.96866C116.935 6.20373 117.242 5.47949 117.651 4.79843C118.059 4.11779 118.547 3.50964 119.112 2.97483C119.677 2.44074 120.322 1.97896 121.043 1.59154C121.764 1.20412 122.531 0.913085 123.341 0.719271C124.152 0.525353 125.006 0.428234 125.903 0.428234C126.799 0.428234 127.652 0.525353 128.461 0.719271C129.269 0.913189 130.033 1.20422 130.75 1.59154C131.468 1.97927 132.109 2.44074 132.674 2.97441C133.239 3.50766 133.728 4.11653 134.141 4.79801C134.554 5.47949 134.865 6.20363 135.071 6.96856C135.277 7.73432 135.38 8.54233 135.38 9.39081C135.38 11.0889 134.967 12.6212 134.141 13.9837C133.728 14.6652 133.239 15.2741 132.674 15.8073C132.238 16.2189 131.757 16.5882 131.23 16.9132V16.9133ZM125.903 14.8062C126.404 14.8062 126.88 14.7492 127.331 14.6342C127.782 14.5194 128.21 14.3466 128.611 14.118C129.013 13.8889 129.373 13.6138 129.689 13.2937C130.005 12.9735 130.278 12.6084 130.507 12.1987C130.736 11.7886 130.909 11.3483 131.024 10.8808C131.138 10.414 131.196 9.91706 131.196 9.39091C131.196 8.86475 131.138 8.36781 131.024 7.90101C130.909 7.43348 130.736 6.99317 130.507 6.58312C130.278 6.17338 130.005 5.80828 129.689 5.48815C129.373 5.16801 129.013 4.89283 128.611 4.66386C128.21 4.43521 127.782 4.26247 127.331 4.14762C126.88 4.03277 126.404 3.97561 125.903 3.97561C125.402 3.97561 124.925 4.03267 124.474 4.14762C124.023 4.26216 123.595 4.43448 123.194 4.66386C122.792 4.89251 122.432 5.16801 122.116 5.48783C121.801 5.80755 121.527 6.17348 121.298 6.58312C121.069 6.99317 120.896 7.43348 120.782 7.90101C120.667 8.36781 120.609 8.86475 120.609 9.39091C120.62 11.1938 120.609 13.0022 120.609 14.8062C122.374 14.8062 124.138 14.8062 125.903 14.8062Z" fill="#21422F"/>
  <path d="M21.0254 0.500488H2.87387C1.70075 0.500488 0.749756 1.45149 0.749756 2.62461V20.7761C0.749756 21.9492 1.70075 22.9002 2.87387 22.9002H21.0254C22.1985 22.9002 23.1495 21.9492 23.1495 20.7761V2.62461C23.1495 1.45149 22.1985 0.500488 21.0254 0.500488Z" fill="#21422F"/>
  <path d="M46.5383 26.4907H28.3868C27.2137 26.4907 26.2627 27.4417 26.2627 28.6148V46.7663C26.2627 47.9395 27.2137 48.8905 28.3868 48.8905H46.5383C47.7114 48.8905 48.6625 47.9395 48.6625 46.7663V28.6148C48.6625 27.4417 47.7114 26.4907 46.5383 26.4907Z" fill="#21422F"/>
  <path d="M37.712 23.4005C44.1739 23.4005 49.4122 18.1621 49.4122 11.7003C49.4122 5.23838 44.1739 0 37.712 0C31.2501 0 26.0117 5.23838 26.0117 11.7003C26.0117 18.1621 31.2501 23.4005 37.712 23.4005Z" fill="#21422F"/>
  <path d="M11.7003 49.3908C18.1621 49.3908 23.4005 44.1524 23.4005 37.6905C23.4005 31.2286 18.1621 25.9902 11.7003 25.9902C5.23839 25.9902 0 31.2286 0 37.6905C0 44.1524 5.23839 49.3908 11.7003 49.3908Z" fill="#21422F"/>
</svg>