<svg width="152" height="44" viewBox="0 0 152 44" fill="none" xmlns="http://www.w3.org/2000/svg">
<rect x="0.5" y="0.5" width="151" height="43" stroke="#B9B9B9"/>
<path d="M12.6761 36V33.2H13.8881C14.1388 33.2 14.3548 33.2413 14.5361 33.324C14.7175 33.404 14.8575 33.52 14.9561 33.672C15.0548 33.824 15.1041 34.0053 15.1041 34.216C15.1041 34.424 15.0548 34.604 14.9561 34.756C14.8575 34.908 14.7175 35.0253 14.5361 35.108C14.3548 35.188 14.1388 35.228 13.8881 35.228H13.0361L13.3241 34.936V36H12.6761ZM13.3241 35.008L13.0361 34.7H13.8521C14.0521 34.7 14.2015 34.6573 14.3001 34.572C14.3988 34.4867 14.4481 34.368 14.4481 34.216C14.4481 34.0613 14.3988 33.9413 14.3001 33.856C14.2015 33.7707 14.0521 33.728 13.8521 33.728H13.0361L13.3241 33.42V35.008ZM17.075 36L18.323 33.2H18.963L20.215 36H19.535L18.511 33.528H18.767L17.739 36H17.075ZM17.699 35.4L17.871 34.908H19.311L19.487 35.4H17.699ZM22.3343 35.752L22.5343 35.288C22.6543 35.36 22.7823 35.416 22.9183 35.456C23.0569 35.4933 23.1916 35.5147 23.3223 35.52C23.4556 35.5227 23.5756 35.5093 23.6823 35.48C23.7916 35.4507 23.8783 35.4067 23.9423 35.348C24.0089 35.2893 24.0423 35.2147 24.0423 35.124C24.0423 35.0173 23.9983 34.9387 23.9103 34.888C23.8223 34.8347 23.7049 34.808 23.5583 34.808H22.8743V34.32H23.5103C23.6409 34.32 23.7423 34.2933 23.8143 34.24C23.8889 34.1867 23.9263 34.1133 23.9263 34.02C23.9263 33.94 23.8996 33.876 23.8463 33.828C23.7929 33.7773 23.7196 33.74 23.6263 33.716C23.5356 33.692 23.4329 33.6813 23.3183 33.684C23.2036 33.6867 23.0849 33.7053 22.9623 33.74C22.8396 33.7747 22.7223 33.8227 22.6103 33.884L22.4143 33.384C22.5956 33.2907 22.7863 33.2267 22.9863 33.192C23.1889 33.1547 23.3836 33.1453 23.5703 33.164C23.7596 33.18 23.9303 33.2227 24.0823 33.292C24.2343 33.3587 24.3556 33.4467 24.4463 33.556C24.5369 33.6653 24.5823 33.7947 24.5823 33.944C24.5823 34.0773 24.5476 34.196 24.4783 34.3C24.4089 34.404 24.3116 34.484 24.1863 34.54C24.0636 34.596 23.9223 34.624 23.7623 34.624L23.7783 34.48C23.9649 34.48 24.1263 34.512 24.2623 34.576C24.4009 34.6373 24.5076 34.724 24.5823 34.836C24.6596 34.9453 24.6983 35.072 24.6983 35.216C24.6983 35.3493 24.6623 35.4693 24.5903 35.576C24.5209 35.68 24.4249 35.768 24.3023 35.84C24.1796 35.912 24.0396 35.9653 23.8823 36C23.7249 36.0347 23.5569 36.0493 23.3783 36.044C23.2023 36.0387 23.0249 36.0133 22.8463 35.968C22.6676 35.92 22.4969 35.848 22.3343 35.752ZM27.2113 36V33.2H28.4233C28.6739 33.2 28.8899 33.2413 29.0713 33.324C29.2526 33.404 29.3926 33.52 29.4913 33.672C29.5899 33.824 29.6393 34.0053 29.6393 34.216C29.6393 34.424 29.5899 34.604 29.4913 34.756C29.3926 34.908 29.2526 35.0253 29.0713 35.108C28.8899 35.188 28.6739 35.228 28.4233 35.228H27.5713L27.8593 34.936V36H27.2113ZM27.8593 35.008L27.5713 34.7H28.3873C28.5873 34.7 28.7366 34.6573 28.8353 34.572C28.9339 34.4867 28.9833 34.368 28.9833 34.216C28.9833 34.0613 28.9339 33.9413 28.8353 33.856C28.7366 33.7707 28.5873 33.728 28.3873 33.728H27.5713L27.8593 33.42V35.008ZM31.6101 36L32.8581 33.2H33.4981L34.7501 36H34.0701L33.0461 33.528H33.3021L32.2741 36H31.6101ZM32.2341 35.4L32.4061 34.908H33.8461L34.0221 35.4H32.2341ZM37.1214 36V33.2H39.3814V33.716H37.7654V34.292H38.5414C38.8801 34.292 39.1374 34.3627 39.3134 34.504C39.4921 34.6453 39.5814 34.8507 39.5814 35.12C39.5814 35.3973 39.4828 35.6133 39.2854 35.768C39.0881 35.9227 38.8094 36 38.4494 36H37.1214ZM37.7654 35.52H38.4134C38.5788 35.52 38.7054 35.488 38.7934 35.424C38.8814 35.3573 38.9254 35.2613 38.9254 35.136C38.9254 34.8907 38.7548 34.768 38.4134 34.768H37.7654V35.52ZM43.4146 36.048C43.1932 36.048 42.9879 36.012 42.7986 35.94C42.6119 35.868 42.4492 35.7667 42.3106 35.636C42.1746 35.5053 42.0679 35.352 41.9906 35.176C41.9159 35 41.8786 34.808 41.8786 34.6C41.8786 34.392 41.9159 34.2 41.9906 34.024C42.0679 33.848 42.1759 33.6947 42.3146 33.564C42.4532 33.4333 42.6159 33.332 42.8026 33.26C42.9892 33.188 43.1919 33.152 43.4106 33.152C43.6319 33.152 43.8346 33.188 44.0186 33.26C44.2052 33.332 44.3666 33.4333 44.5026 33.564C44.6412 33.6947 44.7492 33.848 44.8266 34.024C44.9039 34.1973 44.9426 34.3893 44.9426 34.6C44.9426 34.808 44.9039 35.0013 44.8266 35.18C44.7492 35.356 44.6412 35.5093 44.5026 35.64C44.3666 35.768 44.2052 35.868 44.0186 35.94C43.8346 36.012 43.6332 36.048 43.4146 36.048ZM43.4106 35.496C43.5359 35.496 43.6506 35.4747 43.7546 35.432C43.8612 35.3893 43.9546 35.328 44.0346 35.248C44.1146 35.168 44.1759 35.0733 44.2186 34.964C44.2639 34.8547 44.2866 34.7333 44.2866 34.6C44.2866 34.4667 44.2639 34.3453 44.2186 34.236C44.1759 34.1267 44.1146 34.032 44.0346 33.952C43.9572 33.872 43.8652 33.8107 43.7586 33.768C43.6519 33.7253 43.5359 33.704 43.4106 33.704C43.2852 33.704 43.1692 33.7253 43.0626 33.768C42.9586 33.8107 42.8666 33.872 42.7866 33.952C42.7066 34.032 42.6439 34.1267 42.5986 34.236C42.5559 34.3453 42.5346 34.4667 42.5346 34.6C42.5346 34.7307 42.5559 34.852 42.5986 34.964C42.6439 35.0733 42.7052 35.168 42.7826 35.248C42.8626 35.328 42.9559 35.3893 43.0626 35.432C43.1692 35.4747 43.2852 35.496 43.4106 35.496ZM48.0067 36V33.58L48.1547 33.728H47.1147V33.2H49.5427V33.728H48.5027L48.6467 33.58V36H48.0067ZM51.4929 36L52.7409 33.2H53.3809L54.6329 36H53.9529L52.9289 33.528H53.1849L52.1569 36H51.4929ZM52.1169 35.4L52.2889 34.908H53.7289L53.9049 35.4H52.1169ZM58.9243 33.2H59.5723V36H58.9243V33.2ZM57.6523 36H57.0043V33.2H57.6523V36ZM58.9723 34.852H57.6043V34.304H58.9723V34.852ZM63.6138 36.048C63.3924 36.048 63.1871 36.012 62.9978 35.94C62.8111 35.868 62.6484 35.7667 62.5098 35.636C62.3738 35.5053 62.2671 35.352 62.1898 35.176C62.1151 35 62.0778 34.808 62.0778 34.6C62.0778 34.392 62.1151 34.2 62.1898 34.024C62.2671 33.848 62.3751 33.6947 62.5138 33.564C62.6524 33.4333 62.8151 33.332 63.0018 33.26C63.1884 33.188 63.3911 33.152 63.6098 33.152C63.8311 33.152 64.0338 33.188 64.2178 33.26C64.4044 33.332 64.5658 33.4333 64.7018 33.564C64.8404 33.6947 64.9484 33.848 65.0258 34.024C65.1031 34.1973 65.1418 34.3893 65.1418 34.6C65.1418 34.808 65.1031 35.0013 65.0258 35.18C64.9484 35.356 64.8404 35.5093 64.7018 35.64C64.5658 35.768 64.4044 35.868 64.2178 35.94C64.0338 36.012 63.8324 36.048 63.6138 36.048ZM63.6098 35.496C63.7351 35.496 63.8498 35.4747 63.9538 35.432C64.0604 35.3893 64.1538 35.328 64.2338 35.248C64.3138 35.168 64.3751 35.0733 64.4178 34.964C64.4631 34.8547 64.4858 34.7333 64.4858 34.6C64.4858 34.4667 64.4631 34.3453 64.4178 34.236C64.3751 34.1267 64.3138 34.032 64.2338 33.952C64.1564 33.872 64.0644 33.8107 63.9578 33.768C63.8511 33.7253 63.7351 33.704 63.6098 33.704C63.4844 33.704 63.3684 33.7253 63.2618 33.768C63.1578 33.8107 63.0658 33.872 62.9858 33.952C62.9058 34.032 62.8431 34.1267 62.7978 34.236C62.7551 34.3453 62.7338 34.4667 62.7338 34.6C62.7338 34.7307 62.7551 34.852 62.7978 34.964C62.8431 35.0733 62.9044 35.168 62.9818 35.248C63.0618 35.328 63.1551 35.3893 63.2618 35.432C63.3684 35.4747 63.4844 35.496 63.6098 35.496ZM70.7738 36V33.2H72.0778C72.4031 33.2 72.6564 33.2627 72.8378 33.388C73.0191 33.5133 73.1098 33.692 73.1098 33.924C73.1098 34.1533 73.0244 34.332 72.8538 34.46C72.6831 34.5853 72.4564 34.648 72.1738 34.648L72.2498 34.48C72.5644 34.48 72.8084 34.5427 72.9818 34.668C73.1551 34.7933 73.2418 34.9747 73.2418 35.212C73.2418 35.4573 73.1484 35.6507 72.9618 35.792C72.7778 35.9307 72.5084 36 72.1538 36H70.7738ZM71.4178 35.52H72.1298C72.2791 35.52 72.3924 35.4907 72.4698 35.432C72.5471 35.3733 72.5858 35.2827 72.5858 35.16C72.5858 35.0427 72.5471 34.956 72.4698 34.9C72.3924 34.8413 72.2791 34.812 72.1298 34.812H71.4178V35.52ZM71.4178 34.36H72.0218C72.1631 34.36 72.2698 34.332 72.3418 34.276C72.4138 34.2173 72.4498 34.132 72.4498 34.02C72.4498 33.908 72.4138 33.824 72.3418 33.768C72.2698 33.7093 72.1631 33.68 72.0218 33.68H71.4178V34.36ZM79.7911 36.048C79.5671 36.048 79.3524 36.0187 79.1471 35.96C78.9417 35.8987 78.7764 35.82 78.6511 35.724L78.8711 35.236C78.9911 35.3213 79.1324 35.392 79.2951 35.448C79.4604 35.5013 79.6271 35.528 79.7951 35.528C79.9231 35.528 80.0257 35.516 80.1031 35.492C80.1831 35.4653 80.2417 35.4293 80.2791 35.384C80.3164 35.3387 80.3351 35.2867 80.3351 35.228C80.3351 35.1533 80.3057 35.0947 80.2471 35.052C80.1884 35.0067 80.1111 34.9707 80.0151 34.944C79.9191 34.9147 79.8124 34.888 79.6951 34.864C79.5804 34.8373 79.4644 34.8053 79.3471 34.768C79.2324 34.7307 79.1271 34.6827 79.0311 34.624C78.9351 34.5653 78.8564 34.488 78.7951 34.392C78.7364 34.296 78.7071 34.1733 78.7071 34.024C78.7071 33.864 78.7497 33.7187 78.8351 33.588C78.9231 33.4547 79.0537 33.3493 79.2271 33.272C79.4031 33.192 79.6231 33.152 79.8871 33.152C80.0631 33.152 80.2364 33.1733 80.4071 33.216C80.5777 33.256 80.7284 33.3173 80.8591 33.4L80.6591 33.892C80.5284 33.8173 80.3977 33.7627 80.2671 33.728C80.1364 33.6907 80.0084 33.672 79.8831 33.672C79.7577 33.672 79.6551 33.6867 79.5751 33.716C79.4951 33.7453 79.4377 33.784 79.4031 33.832C79.3684 33.8773 79.3511 33.9307 79.3511 33.992C79.3511 34.064 79.3804 34.1227 79.4391 34.168C79.4977 34.2107 79.5751 34.2453 79.6711 34.272C79.7671 34.2987 79.8724 34.3253 79.9871 34.352C80.1044 34.3787 80.2204 34.4093 80.3351 34.444C80.4524 34.4787 80.5591 34.5253 80.6551 34.584C80.7511 34.6427 80.8284 34.72 80.8871 34.816C80.9484 34.912 80.9791 35.0333 80.9791 35.18C80.9791 35.3373 80.9351 35.4813 80.8471 35.612C80.7591 35.7427 80.6271 35.848 80.4511 35.928C80.2777 36.008 80.0577 36.048 79.7911 36.048ZM83.9628 36V33.728H83.0668V33.2H85.5068V33.728H84.6108V36H83.9628ZM87.8554 36V33.2H89.0674C89.3181 33.2 89.5341 33.2413 89.7154 33.324C89.8968 33.404 90.0368 33.52 90.1354 33.672C90.2341 33.824 90.2834 34.0053 90.2834 34.216C90.2834 34.424 90.2341 34.604 90.1354 34.756C90.0368 34.9053 89.8968 35.02 89.7154 35.1C89.5341 35.18 89.3181 35.22 89.0674 35.22H88.2154L88.5034 34.936V36H87.8554ZM89.6354 36L88.9354 34.984H89.6274L90.3354 36H89.6354ZM88.5034 35.008L88.2154 34.704H89.0314C89.2314 34.704 89.3808 34.6613 89.4794 34.576C89.5781 34.488 89.6274 34.368 89.6274 34.216C89.6274 34.0613 89.5781 33.9413 89.4794 33.856C89.3808 33.7707 89.2314 33.728 89.0314 33.728H88.2154L88.5034 33.42V35.008ZM93.3928 34.328H94.7408V34.832H93.3928V34.328ZM93.4408 35.48H94.9648V36H92.7968V33.2H94.9128V33.72H93.4408V35.48ZM97.4804 36V33.2H98.1284V35.472H99.5324V36H97.4804ZM102.475 35.36L102.439 34.612L103.779 33.2H104.499L103.291 34.5L102.931 34.884L102.475 35.36ZM101.895 36V33.2H102.539V36H101.895ZM103.811 36L102.815 34.78L103.239 34.32L104.567 36H103.811ZM106.359 36L107.607 33.2H108.247L109.499 36H108.819L107.795 33.528H108.051L107.023 36H106.359ZM106.983 35.4L107.155 34.908H108.595L108.771 35.4H106.983ZM115.842 36.048C115.618 36.048 115.403 36.0187 115.198 35.96C114.993 35.8987 114.827 35.82 114.702 35.724L114.922 35.236C115.042 35.3213 115.183 35.392 115.346 35.448C115.511 35.5013 115.678 35.528 115.846 35.528C115.974 35.528 116.077 35.516 116.154 35.492C116.234 35.4653 116.293 35.4293 116.33 35.384C116.367 35.3387 116.386 35.2867 116.386 35.228C116.386 35.1533 116.357 35.0947 116.298 35.052C116.239 35.0067 116.162 34.9707 116.066 34.944C115.97 34.9147 115.863 34.888 115.746 34.864C115.631 34.8373 115.515 34.8053 115.398 34.768C115.283 34.7307 115.178 34.6827 115.082 34.624C114.986 34.5653 114.907 34.488 114.846 34.392C114.787 34.296 114.758 34.1733 114.758 34.024C114.758 33.864 114.801 33.7187 114.886 33.588C114.974 33.4547 115.105 33.3493 115.278 33.272C115.454 33.192 115.674 33.152 115.938 33.152C116.114 33.152 116.287 33.1733 116.458 33.216C116.629 33.256 116.779 33.3173 116.91 33.4L116.71 33.892C116.579 33.8173 116.449 33.7627 116.318 33.728C116.187 33.6907 116.059 33.672 115.934 33.672C115.809 33.672 115.706 33.6867 115.626 33.716C115.546 33.7453 115.489 33.784 115.454 33.832C115.419 33.8773 115.402 33.9307 115.402 33.992C115.402 34.064 115.431 34.1227 115.49 34.168C115.549 34.2107 115.626 34.2453 115.722 34.272C115.818 34.2987 115.923 34.3253 116.038 34.352C116.155 34.3787 116.271 34.4093 116.386 34.444C116.503 34.4787 116.61 34.5253 116.706 34.584C116.802 34.6427 116.879 34.72 116.938 34.816C116.999 34.912 117.03 35.0333 117.03 35.18C117.03 35.3373 116.986 35.4813 116.898 35.612C116.81 35.7427 116.678 35.848 116.502 35.928C116.329 36.008 116.109 36.048 115.842 36.048ZM120.014 36V33.728H119.118V33.2H121.558V33.728H120.662V36H120.014ZM125.103 36.048C124.706 36.048 124.395 35.9373 124.171 35.716C123.947 35.4947 123.835 35.1787 123.835 34.768V33.2H124.483V34.744C124.483 35.0107 124.538 35.2027 124.647 35.32C124.757 35.4373 124.91 35.496 125.107 35.496C125.305 35.496 125.458 35.4373 125.567 35.32C125.677 35.2027 125.731 35.0107 125.731 34.744V33.2H126.371V34.768C126.371 35.1787 126.259 35.4947 126.035 35.716C125.811 35.9373 125.501 36.048 125.103 36.048ZM129.012 36V33.2H130.284C130.588 33.2 130.856 33.2587 131.088 33.376C131.32 33.4907 131.501 33.652 131.632 33.86C131.762 34.068 131.828 34.3147 131.828 34.6C131.828 34.8827 131.762 35.1293 131.632 35.34C131.501 35.548 131.32 35.7107 131.088 35.828C130.856 35.9427 130.588 36 130.284 36H129.012ZM129.66 35.468H130.252C130.438 35.468 130.6 35.4333 130.736 35.364C130.874 35.292 130.981 35.1907 131.056 35.06C131.133 34.9293 131.172 34.776 131.172 34.6C131.172 34.4213 131.133 34.268 131.056 34.14C130.981 34.0093 130.874 33.9093 130.736 33.84C130.6 33.768 130.438 33.732 130.252 33.732H129.66V35.468ZM134.316 36V33.2H134.964V36H134.316ZM138.989 36.048C138.768 36.048 138.562 36.012 138.373 35.94C138.186 35.868 138.024 35.7667 137.885 35.636C137.749 35.5053 137.642 35.352 137.565 35.176C137.49 35 137.453 34.808 137.453 34.6C137.453 34.392 137.49 34.2 137.565 34.024C137.642 33.848 137.75 33.6947 137.889 33.564C138.028 33.4333 138.19 33.332 138.377 33.26C138.564 33.188 138.766 33.152 138.985 33.152C139.206 33.152 139.409 33.188 139.593 33.26C139.78 33.332 139.941 33.4333 140.077 33.564C140.216 33.6947 140.324 33.848 140.401 34.024C140.478 34.1973 140.517 34.3893 140.517 34.6C140.517 34.808 140.478 35.0013 140.401 35.18C140.324 35.356 140.216 35.5093 140.077 35.64C139.941 35.768 139.78 35.868 139.593 35.94C139.409 36.012 139.208 36.048 138.989 36.048ZM138.985 35.496C139.11 35.496 139.225 35.4747 139.329 35.432C139.436 35.3893 139.529 35.328 139.609 35.248C139.689 35.168 139.75 35.0733 139.793 34.964C139.838 34.8547 139.861 34.7333 139.861 34.6C139.861 34.4667 139.838 34.3453 139.793 34.236C139.75 34.1267 139.689 34.032 139.609 33.952C139.532 33.872 139.44 33.8107 139.333 33.768C139.226 33.7253 139.11 33.704 138.985 33.704C138.86 33.704 138.744 33.7253 138.637 33.768C138.533 33.8107 138.441 33.872 138.361 33.952C138.281 34.032 138.218 34.1267 138.173 34.236C138.13 34.3453 138.109 34.4667 138.109 34.6C138.109 34.7307 138.13 34.852 138.173 34.964C138.218 35.0733 138.28 35.168 138.357 35.248C138.437 35.328 138.53 35.3893 138.637 35.432C138.744 35.4747 138.86 35.496 138.985 35.496Z" fill="#B9B9B9"/>
<path fill-rule="evenodd" clip-rule="evenodd" d="M26.1895 17.1988C25.5969 16.9213 24.8232 16.6289 23.8685 16.3216C22.9137 16.0144 21.8981 15.8603 20.8232 15.8603C20.3179 15.8603 19.9228 15.945 19.638 16.1135C19.3526 16.282 19.182 16.4753 19.1277 16.6933C19.0728 16.9114 19.1441 17.1244 19.3417 17.3326C19.5392 17.5407 19.8684 17.6745 20.3293 17.7335C22.4364 18.012 24.1039 18.358 25.3335 18.7747C26.5626 19.191 27.5009 19.6667 28.1484 20.2019C28.7958 20.7371 29.2129 21.3268 29.3994 21.9711C29.586 22.6149 29.6793 23.2938 29.6793 24.0074C29.6793 24.8999 29.4598 25.6977 29.0208 26.4014C28.5814 27.1051 27.9673 27.7097 27.1772 28.2148C26.387 28.7202 25.4487 29.1072 24.3623 29.3744C23.2759 29.642 22.0957 29.7762 20.8232 29.7762C19.001 29.7762 17.3384 29.5825 15.8354 29.1964C14.332 28.8094 13.0535 28.3193 12 27.7241L14.6667 23.8295C14.9515 23.988 15.3251 24.1561 15.7861 24.3349C16.247 24.5129 16.7518 24.6769 17.3005 24.8255C17.8487 24.9742 18.4253 25.0927 19.0289 25.1823C19.632 25.2715 20.2306 25.3161 20.8232 25.3161C21.2841 25.3161 21.6512 25.2319 21.9261 25.0634C22.2004 24.8949 22.3705 24.6967 22.4364 24.4687C22.5022 24.2408 22.4413 24.0128 22.2553 23.7844C22.0687 23.5569 21.745 23.3834 21.2841 23.2645C19.8355 23.0073 18.5625 22.7343 17.4651 22.4464C16.3677 22.1598 15.4454 21.7922 14.6996 21.3467C13.9534 20.9007 13.3937 20.3456 13.0206 19.6816C12.6475 19.0175 12.4609 18.1899 12.4609 17.1988C12.4609 16.3464 12.6859 15.5738 13.1358 14.8795C13.5853 14.1857 14.1893 13.596 14.9465 13.1104C15.7038 12.6247 16.5872 12.2481 17.5968 11.9805C18.6059 11.7124 19.6819 11.5786 20.8232 11.5786C22.4254 11.5786 23.8849 11.7376 25.2018 12.0548C26.5187 12.372 27.7039 12.8081 28.7574 13.3627L26.1895 17.1988Z" fill="#B9B9B9"/>
<path fill-rule="evenodd" clip-rule="evenodd" d="M40.4115 22.7588V23.1008C40.4115 23.2301 40.4389 23.3531 40.4938 23.4725C40.5482 23.5914 40.6305 23.6905 40.7407 23.7698C40.8505 23.8491 41.0146 23.8887 41.2346 23.8887H44.0659V29.3003H40.4115C39.4897 29.3003 38.6172 29.1417 37.7942 28.8246C36.9711 28.5079 36.2578 28.0767 35.6542 27.5311C35.0502 26.986 34.5728 26.3418 34.2221 25.5984C33.8709 24.8546 33.6954 24.0667 33.6954 23.2346V16.9013H31.9834V12.0844H33.6954V8.18921H40.4115V12.0844H43.2428V16.9013H40.4115V22.7588Z" fill="#B9B9B9"/>
<path fill-rule="evenodd" clip-rule="evenodd" d="M57.8597 11.5493C58.8035 11.5493 59.676 11.6732 60.4771 11.9205C61.2782 12.1688 62.0409 12.4909 62.7652 12.8873L59.4071 18.18C58.9018 17.8232 58.3207 17.6443 57.6622 17.6443C56.4112 17.6443 55.4454 17.9619 54.7651 18.5963C54.0847 19.231 53.7445 20.0929 53.7445 21.1831V29.3H47.0283V12.0841H52.8226V14.8493L52.9214 14.9093C53.1409 14.5128 53.4038 14.1114 53.7115 13.7046C54.0188 13.2987 54.37 12.9369 54.7651 12.6197C55.1601 12.3026 55.6155 12.0449 56.1313 11.8462C56.6466 11.6489 57.2233 11.5493 57.8597 11.5493Z" fill="#B9B9B9"/>
<path fill-rule="evenodd" clip-rule="evenodd" d="M76.6763 18.626C76.2813 17.9917 75.771 17.4862 75.1454 17.1096C74.5199 16.7329 73.8006 16.5446 72.989 16.5446C72.1765 16.5446 71.4691 16.7329 70.8655 17.1096C70.2615 17.4862 69.7627 17.9917 69.3676 18.626H76.6763ZM83.2608 20.6776C83.2608 21.0344 83.2388 21.3813 83.1949 21.7179C83.1505 22.0553 83.0847 22.3923 82.9969 22.7288H69.3676C69.7183 23.3046 70.251 23.7749 70.9643 24.1412C71.6776 24.5088 72.4952 24.6917 73.417 24.6917C74.5144 24.6917 75.4797 24.5831 76.3142 24.3642C77.1482 24.1466 77.872 23.8587 78.4866 23.5019L81.6471 27.5755C80.5282 28.2697 79.2986 28.8148 77.9603 29.2108C76.6215 29.6073 75.1619 29.8055 73.5816 29.8055C72.0453 29.7857 70.6131 29.5384 69.2853 29.0626C67.9574 28.5864 66.8106 27.9431 65.8449 27.1299C64.8787 26.3172 64.1165 25.3603 63.5568 24.2606C62.9971 23.16 62.7173 21.9661 62.7173 20.6776C62.7173 19.3689 62.9807 18.1602 63.5074 17.0501C64.0342 15.94 64.7585 14.9737 65.6803 14.1506C66.6021 13.3284 67.6885 12.6891 68.9396 12.2332C70.1906 11.7773 71.5405 11.5493 72.989 11.5493C74.4376 11.5493 75.7874 11.7773 77.0385 12.2332C78.2895 12.6891 79.376 13.3284 80.2973 14.1506C81.2196 14.9737 81.9439 15.94 82.4706 17.0501C82.9969 18.1602 83.2608 19.3689 83.2608 20.6776Z" fill="#B9B9B9"/>
<mask id="mask0_14_152" style="mask-type:luminance" maskUnits="userSpaceOnUse" x="12" y="7" width="129" height="23">
<path fill-rule="evenodd" clip-rule="evenodd" d="M12 29.8059H140.389V7H12V29.8059Z" fill="white"/>
</mask>
<g mask="url(#mask0_14_152)">
<path fill-rule="evenodd" clip-rule="evenodd" d="M86.5525 29.3H93.2686V6.99951H86.5525V29.3Z" fill="#B9B9B9"/>
<path fill-rule="evenodd" clip-rule="evenodd" d="M117.927 12.0843L109.334 20.6774L117.927 29.3002H108.94L104.923 25.0483L103.968 25.8808V29.3002H97.2192V6.99976H103.968V17.3769H104.099L109.005 12.0843H117.927Z" fill="#B9B9B9"/>
</g>
<path fill-rule="evenodd" clip-rule="evenodd" d="M120.238 14.2564H140.389V9.07324H120.238V14.2564Z" fill="#7E7E7E"/>
<path fill-rule="evenodd" clip-rule="evenodd" d="M137.379 9.07324L119.662 25.0197L124.159 28.5824L134.819 19.0486V28.7693H140.965V9.07324H137.379Z" fill="#B9B9B9"/>
</svg>
