<svg xmlns="http://www.w3.org/2000/svg" width="99" height="49" viewBox="0 0 99 49" fill="none">
  <g clip-path="url(#clip0_37_250)">
    <path d="M6.03936 10.4136H21.3885V13.0334H6.03936C5.10268 13.0334 4.24999 13.4165 3.63136 14.0331C3.01273 14.6497 2.62843 15.4996 2.62843 16.4332V42.9805C2.62843 43.914 3.01273 44.764 3.63136 45.3806C4.24999 45.9973 5.10268 46.3802 6.03936 46.3802H92.9603C93.8969 46.3802 94.7496 45.9973 95.3683 45.3806C95.9869 44.764 96.3712 43.914 96.3712 42.9805V16.4332C96.3712 15.4996 95.9869 14.6497 95.3683 14.0331C94.7496 13.4165 93.8969 13.0334 92.9603 13.0334H77.5685V10.4136H92.9603C94.6224 10.4136 96.1328 11.0906 97.2266 12.1808C98.3204 13.2712 98.9996 14.7766 98.9996 16.4332V42.9805C98.9996 44.6372 98.3204 46.1427 97.2266 47.2328C96.1327 48.3232 94.6223 49.0002 92.9603 49.0002H6.03936C4.37725 49.0002 2.86686 48.3232 1.77303 47.2328C0.679198 46.1426 0 44.6371 0 42.9805V16.4332C0 14.7766 0.679198 13.2711 1.77303 12.1808C2.86695 11.0906 4.37733 10.4136 6.03936 10.4136Z" fill="#000"/>
    <path d="M20.989 23.7841C22.3545 23.7841 23.5436 24.0086 24.5564 24.4572C25.5693 24.9059 26.3463 25.5495 26.8859 26.3865C27.4257 27.2235 27.6962 28.2186 27.6962 29.3702C27.6962 30.5069 27.4256 31.4982 26.8859 32.3427C26.3462 33.1872 25.5687 33.835 24.5564 34.2833C23.5441 34.7314 22.3535 34.9562 20.989 34.9562H17.4329V39.488H14.5068V23.7841H20.989ZM34.5355 19.5032C32.945 19.5032 31.5081 19.1555 30.2252 18.46C28.9423 17.7646 27.9371 16.8035 27.2093 15.5771C26.4817 14.3507 26.1176 12.9674 26.1176 11.4269C26.1176 9.88642 26.4853 8.50301 27.2205 7.27666C27.9558 6.05024 28.965 5.08934 30.2478 4.39389C31.5307 3.69852 32.9675 3.35066 34.5579 3.35066C35.8483 3.35066 37.0263 3.57499 38.0916 4.02364C39.1569 4.4722 40.0573 5.12297 40.7925 5.9754L38.9019 7.74762C37.7615 6.52119 36.3585 5.90806 34.693 5.90806C33.6127 5.90806 32.6449 6.14371 31.7896 6.61475C30.9345 7.08588 30.2667 7.74021 29.7865 8.57775C29.3063 9.41529 29.0662 10.365 29.0662 11.4268C29.0662 12.4887 29.3063 13.4384 29.7865 14.276C30.2667 15.1135 30.9345 15.7678 31.7896 16.2389C32.6449 16.7099 33.6127 16.9457 34.693 16.9457C36.3586 16.9457 37.7615 16.325 38.9019 15.0835L40.7925 16.8783C40.0573 17.7308 39.1532 18.3814 38.0803 18.8302C37.0075 19.2788 35.8258 19.5031 34.5354 19.5031L34.5355 19.5032ZM49.5479 3.28794L44.0561 19.2789H41.04L48.1299 0.000244141H51.0108L58.1231 19.2789H55.0621L49.5479 3.28794ZM70.1864 19.2789L66.9677 14.68C66.8328 14.695 66.6297 14.7024 66.3601 14.7024H62.8039V19.2789H59.878V3.57508H66.3601C67.7256 3.57508 68.9146 3.79949 69.9275 4.24814C70.9404 4.69679 71.717 5.34015 72.2569 6.17743C72.797 7.01488 73.0672 8.00958 73.0672 9.16117C73.0672 10.3427 72.7782 11.3597 72.2006 12.2122C71.6232 13.0644 70.794 13.7004 69.7136 14.1191L73.3374 19.2789H70.1863H70.1864ZM70.1189 9.16117C70.1189 8.15907 69.7888 7.38887 69.1286 6.8504C68.4683 6.31202 67.5002 6.04292 66.2252 6.04292H62.804V12.3019H66.2252C67.5005 12.3019 68.4683 12.0291 69.1286 11.4831C69.7888 10.9372 70.1189 10.1632 70.1189 9.16126V9.16117ZM49.5028 23.4971L44.011 39.4881H40.9949L48.0848 20.2094H50.9657L58.0781 39.4881H55.017L49.5028 23.4971ZM20.854 32.4887C22.1294 32.4887 23.0976 32.219 23.7573 31.6811C24.4171 31.1431 24.7478 30.3723 24.7478 29.3703C24.7478 28.3682 24.4176 27.598 23.7573 27.0596C23.0971 26.5212 22.1283 26.2521 20.854 26.2521H17.4329V32.4887H20.854ZM30.6221 23.7842H33.5482V37.0203H40.7924V39.4881H30.6221V23.7842ZM62.4895 26.2521H57.2679V23.7842H70.6372V26.2521H65.4156V39.4881H62.4895V26.2521ZM84.6594 37.0428V39.4881H72.843V23.7842H84.3443V26.2296H75.769V30.3127H83.3765V32.713H75.769V37.0429H84.6595L84.6594 37.0428Z" fill="#000"/>
    <path d="M49.5235 17.5967C50.4188 17.5967 51.1446 16.915 51.1446 16.074C51.1446 15.233 50.4188 14.5513 49.5235 14.5513C48.6281 14.5513 47.9023 15.233 47.9023 16.074C47.9023 16.915 48.6281 17.5967 49.5235 17.5967Z" fill="#000"/>
    <path d="M49.5235 37.9866C50.4188 37.9866 51.1446 37.3048 51.1446 36.4639C51.1446 35.6229 50.4188 34.9412 49.5235 34.9412C48.6281 34.9412 47.9023 35.6229 47.9023 36.4639C47.9023 37.3048 48.6281 37.9866 49.5235 37.9866Z" fill="#000"/>
    <path d="M8.30228 30.3289C9.1976 30.3289 9.9234 29.6471 9.9234 28.8062C9.9234 27.9652 9.1976 27.2834 8.30228 27.2834C7.40695 27.2834 6.68115 27.9652 6.68115 28.8062C6.68115 29.6471 7.40695 30.3289 8.30228 30.3289Z" fill="#000"/>
    <path d="M90.875 30.3289C91.7703 30.3289 92.4962 29.6471 92.4962 28.8062C92.4962 27.9652 91.7703 27.2834 90.875 27.2834C89.9797 27.2834 89.2539 27.9652 89.2539 28.8062C89.2539 29.6471 89.9797 30.3289 90.875 30.3289Z" fill="#000"/>
  </g>
  <defs>
    <clipPath id="clip0_37_250">
      <rect width="99" height="49" fill="black"/>
    </clipPath>
  </defs>
</svg>