<svg xmlns="http://www.w3.org/2000/svg" width="25" height="25" viewBox="0 0 25 25" fill="none">
  <path d="M23.525 0.00182092C23.2481 0.0151811 22.9785 0.0999245 22.7355 0.206962C22.4949 0.313281 21.1097 0.963365 19.0642 1.925C17.0187 2.88663 14.3597 4.13888 11.7238 5.3806C6.4522 7.86404 1.27192 10.3076 1.27192 10.3076L1.30967 10.2917C1.30967 10.2917 0.997017 10.4066 0.680028 10.6495C0.521533 10.7709 0.351019 10.9277 0.2114 11.1562C0.0717823 11.3848 -0.0302818 11.7087 0.00818198 12.0513C0.143286 13.2546 1.27747 13.5959 1.27747 13.5959L1.28191 13.5983L6.34352 15.5032C6.47257 15.9766 7.87873 21.1371 8.18804 22.23C8.35887 22.8342 8.51876 23.1828 8.68554 23.4206C8.769 23.5395 8.85647 23.6316 8.95317 23.699C8.99159 23.7257 9.032 23.7458 9.07199 23.7637C9.07284 23.7641 9.07336 23.7633 9.07421 23.7637C9.07912 23.7661 9.08375 23.7663 9.08865 23.7686L9.07532 23.7649C9.08461 23.769 9.09378 23.776 9.10308 23.7796C9.12113 23.7865 9.13219 23.7863 9.15528 23.7918C9.73496 24.0143 10.2147 23.6013 10.2147 23.6013L10.2347 23.5842L13.344 20.4131L18.3901 24.7393L18.4534 24.7711C19.3367 25.2023 20.1354 24.9617 20.5778 24.5659C21.0201 24.1701 21.1941 23.6599 21.1941 23.6599L21.213 23.6062L24.9209 2.35604C25.0158 1.88063 25.0293 1.46969 24.9398 1.09835C24.8503 0.727008 24.6329 0.404208 24.3601 0.225293C24.0873 0.0463715 23.8019 -0.0115392 23.525 0.00182092ZM23.555 1.27294C23.6675 1.26722 23.7508 1.28135 23.7771 1.29859C23.8034 1.31582 23.8152 1.31355 23.8404 1.41825C23.8656 1.52295 23.8793 1.74348 23.8104 2.08862L23.8082 2.09595L20.1214 23.2227C20.1126 23.244 20.0358 23.4394 19.8604 23.5964C19.6815 23.7565 19.4824 23.8815 18.9542 23.6379L13.4362 18.9063L13.2808 18.772L13.2774 18.7756L11.6272 17.4142L20.9009 5.41724C21.0465 5.22941 21.078 4.96499 20.9813 4.7423C20.8846 4.51959 20.6778 4.38028 20.4534 4.38667C20.3461 4.38974 20.2418 4.42615 20.1525 4.49169L6.73331 14.3286L1.66392 12.42C1.66392 12.42 1.16053 12.112 1.13644 11.8974C1.13511 11.8855 1.12916 11.8963 1.15532 11.8535C1.18148 11.8106 1.24723 11.7384 1.32967 11.6752C1.49454 11.5489 1.6828 11.4725 1.6828 11.4725L1.70168 11.4652L1.72055 11.4566C1.72055 11.4566 6.90111 9.01296 12.1725 6.52964C14.8082 5.28798 17.4667 4.03665 19.5117 3.07526C21.5562 2.11411 23.0335 1.42229 23.1585 1.367C23.301 1.30429 23.4425 1.27867 23.555 1.27294ZM17.4051 8.00832L10.3724 17.1064L10.369 17.1101C10.3581 17.1246 10.3477 17.1397 10.338 17.1553C10.3268 17.1722 10.3164 17.1897 10.3069 17.2078C10.2673 17.2815 10.242 17.3634 10.2325 17.4483C10.2324 17.45 10.2324 17.4516 10.2325 17.4532L9.3163 21.9834C9.30107 21.9344 9.2904 21.9165 9.2741 21.8588V21.8576C8.98311 20.8295 7.65644 15.9626 7.47288 15.2895L17.4051 8.00832ZM11.1664 18.5974L12.4301 19.6401L10.5734 21.5328L11.1664 18.5974Z" fill="white"/>
</svg>